<svg version="1.1" id="Layer_1" xmlns="http://www.w3.org/2000/svg" xmlns:xlink="http://www.w3.org/1999/xlink" x="0px" y="0px"
	 width="64px" viewBox="0 0 447 458" enable-background="new 0 0 447 458" xml:space="preserve">
<path fill="transparent" opacity="1.000000" stroke="none" 
	d="
M241.000000,459.000000 
	C160.688705,459.000000 80.877403,459.000000 1.033054,459.000000 
	C1.033054,306.397522 1.033054,153.795029 1.033054,1.096265 
	C149.894638,1.096265 298.789368,1.096265 447.842041,1.096265 
	C447.842041,153.666534 447.842041,306.333252 447.842041,459.000000 
	C379.128326,459.000000 310.314148,459.000000 241.000000,459.000000 
M295.995575,347.506653 
	C308.675568,334.485748 321.457092,321.561096 333.960083,308.372375 
	C336.873871,305.298767 339.839996,303.428467 344.069153,302.918610 
	C349.975952,302.206482 351.730591,297.530762 348.165436,292.085754 
	C349.343964,291.288483 350.759491,290.685516 351.689728,289.647644 
	C363.208649,276.796326 374.671204,263.894318 386.095184,250.958481 
	C386.983459,249.952637 387.285309,248.426559 388.179169,247.428345 
	C394.430878,240.446762 400.990112,233.728271 407.015259,226.559433 
	C413.532684,218.804962 419.251129,210.368011 425.911926,202.747849 
	C433.763367,193.765564 438.998383,183.541199 441.846863,172.146393 
	C443.174500,166.835449 444.469543,160.748932 439.612671,156.408676 
	C436.867767,153.955765 433.124969,152.526932 429.683014,150.964218 
	C419.824249,146.488083 409.392242,146.651657 399.131409,148.530960 
	C391.303406,149.964691 383.646240,152.529572 376.058899,155.033066 
	C364.552124,158.829773 352.961121,162.503067 341.788696,167.149292 
	C326.138580,173.657639 310.699524,180.720856 295.438446,188.101456 
	C284.381073,193.449020 273.711548,199.611130 262.957062,205.568832 
	C253.278320,210.930573 243.667938,216.420914 234.126312,222.022964 
	C228.149033,225.532333 222.357101,229.357117 216.477554,233.033234 
	C209.393173,237.462646 202.376251,242.006592 195.185150,246.255600 
	C191.830124,248.237991 188.133881,249.642868 183.496185,251.825348 
	C184.365219,247.357834 184.608261,243.928070 185.717789,240.806244 
	C189.305008,230.713043 192.626663,220.460815 197.139893,210.777542 
	C202.925110,198.365097 209.759277,186.441025 216.157974,174.315231 
	C220.089050,166.865646 223.688339,159.210938 228.069931,152.035019 
	C239.231979,133.754425 250.670242,115.640549 262.154968,97.559654 
	C268.979187,86.815918 275.923920,76.139061 283.148987,65.662827 
	C288.192688,58.349518 294.233917,51.705692 299.050598,44.258987 
	C304.960815,35.121632 310.168152,25.519297 315.432800,15.981900 
	C316.770325,13.558877 316.462921,10.915451 313.002319,10.001748 
	C305.994690,8.151525 300.399567,10.738220 295.766876,15.773212 
	C288.109772,24.095245 279.943695,32.054436 273.146179,41.039608 
	C259.566376,58.989704 245.095367,76.285355 233.530197,95.758965 
	C224.240387,111.401291 213.236496,126.039131 204.191971,141.810196 
	C193.205399,160.967590 182.768005,180.516251 173.445404,200.525711 
	C166.850784,214.680038 162.062378,229.744980 157.441940,244.704315 
	C156.195526,248.739731 154.110016,254.459900 158.177994,258.476196 
	C161.572495,261.827545 165.430908,265.381470 169.768600,266.940369 
	C175.614090,269.041138 181.410309,272.066498 188.393707,270.387390 
	C199.446503,267.729858 208.736038,261.837280 218.102097,255.968124 
	C232.955200,246.660583 247.532486,236.898514 262.571320,227.905472 
	C279.750580,217.632477 297.010162,207.413116 314.796997,198.263229 
	C328.249237,191.343170 342.394104,185.632004 356.579620,180.313385 
	C370.881165,174.951248 385.593170,170.673645 400.176178,166.082367 
	C402.611664,165.315582 405.306030,165.371170 408.677002,164.946426 
	C405.338715,173.325302 403.074768,180.823593 397.597046,187.139999 
	C390.676270,195.120422 384.910095,204.092484 378.148376,212.223068 
	C370.804718,221.053406 362.883881,229.403351 355.225830,237.972702 
	C348.968781,244.974289 342.728546,251.990891 336.479950,259.000031 
	C330.914948,265.242432 325.390137,271.521362 319.766754,277.710754 
	C316.596161,281.200470 313.337830,284.295898 308.031525,284.649536 
	C302.479401,285.019623 296.926331,286.042358 291.486267,287.276184 
	C282.560211,289.300629 273.733307,291.759155 264.848907,293.971680 
	C257.718018,295.747559 250.430679,297.017029 243.456100,299.265930 
	C235.918106,301.696472 228.672943,305.029541 221.281616,307.921844 
	C209.405380,312.569092 197.373779,316.851990 185.667709,321.892395 
	C173.534210,327.116882 161.707520,333.054382 149.751801,338.690948 
	C145.731781,340.586182 141.727524,342.514832 137.864929,344.357239 
	C136.767532,341.368011 135.795212,339.002747 135.024704,336.573486 
	C130.855545,323.428894 127.062805,310.154236 122.511703,297.144318 
	C117.574249,283.029999 111.939018,269.159973 106.623093,255.177719 
	C103.564194,247.132004 100.201302,239.176819 97.694633,230.961365 
	C96.936592,228.476929 97.914085,224.883408 99.266182,222.446945 
	C102.848633,215.991379 107.150551,209.939697 111.013824,203.633942 
	C114.514328,197.920319 117.718269,192.024948 121.222054,186.313431 
	C128.296753,174.780960 135.525314,163.342911 142.609222,151.816055 
	C145.464310,147.170273 147.882828,142.245331 150.891861,137.707275 
	C157.129562,128.299957 163.563370,119.019882 170.070633,109.796196 
	C171.591141,107.640938 173.403198,104.957771 175.647781,104.203285 
	C180.000778,102.740067 181.065903,99.629173 180.876862,96.038956 
	C180.669571,92.101898 177.246155,90.895828 173.915146,90.476822 
	C162.532928,89.045036 154.529617,93.121216 148.133118,101.773323 
	C142.902969,108.847771 138.546036,116.560905 133.579483,123.839058 
	C128.676987,131.023346 123.262459,137.863861 118.482933,145.125290 
	C107.458588,161.874374 96.683014,178.787186 85.589134,195.970261 
	C84.996239,195.447815 83.586273,194.765488 83.072472,193.664810 
	C78.615387,184.116837 74.378433,174.466278 69.942795,164.908035 
	C68.411140,161.607513 66.541267,158.460388 64.760757,155.279648 
	C61.533474,149.514359 58.233948,143.789490 55.006485,138.024292 
	C48.437229,126.289703 41.861553,114.558418 35.371708,102.779938 
	C34.063129,100.404984 32.365570,97.882156 32.179161,95.330215 
	C31.842346,90.719208 28.904768,88.429871 25.391619,88.204506 
	C19.191084,87.806740 13.293066,90.063232 8.180046,93.594238 
	C6.995955,94.411964 6.169994,97.216042 6.624182,98.647682 
	C7.737976,102.158470 9.542147,105.486206 11.340885,108.736893 
	C16.472916,118.011528 22.003923,127.074188 26.890657,136.473587 
	C33.504768,149.195511 40.150414,161.940750 45.897854,175.063461 
	C53.060623,191.417709 59.365044,208.149841 65.894478,224.775986 
	C66.435196,226.152817 66.360291,228.198105 65.731750,229.539291 
	C61.095558,239.432114 56.029865,249.127167 51.527046,259.077972 
	C47.402023,268.193848 42.991001,277.308777 40.164070,286.855865 
	C34.884911,304.684509 30.156033,322.716309 26.217922,340.884613 
	C24.295759,349.752441 24.197414,359.114166 24.134211,368.258240 
	C24.072912,377.126434 29.086029,382.878448 37.121056,386.735077 
	C47.361862,391.650452 58.057667,391.613007 68.871910,390.925140 
	C74.210068,390.585602 79.750130,390.220276 84.751984,388.537994 
	C92.388359,385.969635 99.598709,382.156006 107.071983,379.069763 
	C109.698761,377.984955 112.567101,377.485107 114.800194,376.864136 
	C118.214127,387.634766 121.639503,397.949646 124.728836,408.364166 
	C126.729660,415.109161 127.688469,422.208344 130.164581,428.751312 
	C131.790054,433.046509 131.770065,438.417816 137.086502,441.111298 
	C144.707413,444.972321 152.715652,444.347992 160.586945,443.617706 
	C165.330826,443.177612 167.386566,436.614807 165.679703,432.072662 
	C161.893448,421.997131 158.267960,411.847137 155.016968,401.588043 
	C150.900543,388.597961 147.221146,375.469391 143.150833,361.716614 
	C191.753159,337.600311 240.469055,313.440796 294.981171,303.198090 
	C289.189789,309.434967 283.719940,315.684906 277.861847,321.546844 
	C269.844238,329.569763 261.542450,337.309235 253.342331,345.149139 
	C245.378647,352.763062 237.226578,360.188049 229.453659,367.991302 
	C220.092987,377.388458 210.948273,387.007416 201.929733,396.734009 
	C199.680206,399.160187 198.222687,402.246094 199.969711,405.945251 
	C201.607376,409.412781 202.612442,413.188232 204.357239,416.591705 
	C205.104752,418.049835 206.934647,419.039551 208.420944,420.016663 
	C213.354279,423.259735 217.239990,420.951660 221.602829,418.114899 
	C229.592239,412.920044 240.435318,411.519897 243.925598,400.583008 
	C244.308197,399.384125 244.696136,398.053009 245.491302,397.140137 
	C254.783997,386.472321 264.192017,375.917694 274.878784,366.577179 
	C281.841431,360.491608 288.626617,354.203003 295.995575,347.506653 
z"/>
<path fill="#FFFFFF" opacity="1.000000" stroke="none" 
	d="
M295.743439,347.756012 
	C288.626617,354.203003 281.841431,360.491608 274.878784,366.577179 
	C264.192017,375.917694 254.783997,386.472321 245.491302,397.140137 
	C244.696136,398.053009 244.308197,399.384125 243.925598,400.583008 
	C240.435318,411.519897 229.592239,412.920044 221.602829,418.114899 
	C217.239990,420.951660 213.354279,423.259735 208.420944,420.016663 
	C206.934647,419.039551 205.104752,418.049835 204.357239,416.591705 
	C202.612442,413.188232 201.607376,409.412781 199.969711,405.945251 
	C198.222687,402.246094 199.680206,399.160187 201.929733,396.734009 
	C210.948273,387.007416 220.092987,377.388458 229.453659,367.991302 
	C237.226578,360.188049 245.378647,352.763062 253.342331,345.149139 
	C261.542450,337.309235 269.844238,329.569763 277.861847,321.546844 
	C283.719940,315.684906 289.189789,309.434967 294.981171,303.198090 
	C240.469055,313.440796 191.753159,337.600311 143.150833,361.716614 
	C147.221146,375.469391 150.900543,388.597961 155.016968,401.588043 
	C158.267960,411.847137 161.893448,421.997131 165.679703,432.072662 
	C167.386566,436.614807 165.330826,443.177612 160.586945,443.617706 
	C152.715652,444.347992 144.707413,444.972321 137.086502,441.111298 
	C131.770065,438.417816 131.790054,433.046509 130.164581,428.751312 
	C127.688469,422.208344 126.729660,415.109161 124.728836,408.364166 
	C121.639503,397.949646 118.214127,387.634766 114.800194,376.864136 
	C112.567101,377.485107 109.698761,377.984955 107.071983,379.069763 
	C99.598709,382.156006 92.388359,385.969635 84.751984,388.537994 
	C79.750130,390.220276 74.210068,390.585602 68.871910,390.925140 
	C58.057667,391.613007 47.361862,391.650452 37.121056,386.735077 
	C29.086029,382.878448 24.072912,377.126434 24.134211,368.258240 
	C24.197414,359.114166 24.295759,349.752441 26.217922,340.884613 
	C30.156033,322.716309 34.884911,304.684509 40.164070,286.855865 
	C42.991001,277.308777 47.402023,268.193848 51.527046,259.077972 
	C56.029865,249.127167 61.095558,239.432114 65.731750,229.539291 
	C66.360291,228.198105 66.435196,226.152817 65.894478,224.775986 
	C59.365044,208.149841 53.060623,191.417709 45.897854,175.063461 
	C40.150414,161.940750 33.504768,149.195511 26.890657,136.473587 
	C22.003923,127.074188 16.472916,118.011528 11.340885,108.736893 
	C9.542147,105.486206 7.737976,102.158470 6.624182,98.647682 
	C6.169994,97.216042 6.995955,94.411964 8.180046,93.594238 
	C13.293066,90.063232 19.191084,87.806740 25.391619,88.204506 
	C28.904768,88.429871 31.842346,90.719208 32.179161,95.330215 
	C32.365570,97.882156 34.063129,100.404984 35.371708,102.779938 
	C41.861553,114.558418 48.437229,126.289703 55.006485,138.024292 
	C58.233948,143.789490 61.533474,149.514359 64.760757,155.279648 
	C66.541267,158.460388 68.411140,161.607513 69.942795,164.908035 
	C74.378433,174.466278 78.615387,184.116837 83.072472,193.664810 
	C83.586273,194.765488 84.996239,195.447815 85.589134,195.970261 
	C96.683014,178.787186 107.458588,161.874374 118.482933,145.125290 
	C123.262459,137.863861 128.676987,131.023346 133.579483,123.839058 
	C138.546036,116.560905 142.902969,108.847771 148.133118,101.773323 
	C154.529617,93.121216 162.532928,89.045036 173.915146,90.476822 
	C177.246155,90.895828 180.669571,92.101898 180.876862,96.038956 
	C181.065903,99.629173 180.000778,102.740067 175.647781,104.203285 
	C173.403198,104.957771 171.591141,107.640938 170.070633,109.796196 
	C163.563370,119.019882 157.129562,128.299957 150.891861,137.707275 
	C147.882828,142.245331 145.464310,147.170273 142.609222,151.816055 
	C135.525314,163.342911 128.296753,174.780960 121.222054,186.313431 
	C117.718269,192.024948 114.514328,197.920319 111.013824,203.633942 
	C107.150551,209.939697 102.848633,215.991379 99.266182,222.446945 
	C97.914085,224.883408 96.936592,228.476929 97.694633,230.961365 
	C100.201302,239.176819 103.564194,247.132004 106.623093,255.177719 
	C111.939018,269.159973 117.574249,283.029999 122.511703,297.144318 
	C127.062805,310.154236 130.855545,323.428894 135.024704,336.573486 
	C135.795212,339.002747 136.767532,341.368011 137.864929,344.357239 
	C141.727524,342.514832 145.731781,340.586182 149.751801,338.690948 
	C161.707520,333.054382 173.534210,327.116882 185.667709,321.892395 
	C197.373779,316.851990 209.405380,312.569092 221.281616,307.921844 
	C228.672943,305.029541 235.918106,301.696472 243.456100,299.265930 
	C250.430679,297.017029 257.718018,295.747559 264.848907,293.971680 
	C273.733307,291.759155 282.560211,289.300629 291.486267,287.276184 
	C296.926331,286.042358 302.479401,285.019623 308.031525,284.649536 
	C313.337830,284.295898 316.596161,281.200470 319.766754,277.710754 
	C325.390137,271.521362 330.914948,265.242432 336.479950,259.000031 
	C342.728546,251.990891 348.968781,244.974289 355.225830,237.972702 
	C362.883881,229.403351 370.804718,221.053406 378.148376,212.223068 
	C384.910095,204.092484 390.676270,195.120422 397.597046,187.139999 
	C403.074768,180.823593 405.338715,173.325302 408.677002,164.946426 
	C405.306030,165.371170 402.611664,165.315582 400.176178,166.082367 
	C385.593170,170.673645 370.881165,174.951248 356.579620,180.313385 
	C342.394104,185.632004 328.249237,191.343170 314.796997,198.263229 
	C297.010162,207.413116 279.750580,217.632477 262.571320,227.905472 
	C247.532486,236.898514 232.955200,246.660583 218.102097,255.968124 
	C208.736038,261.837280 199.446503,267.729858 188.393707,270.387390 
	C181.410309,272.066498 175.614090,269.041138 169.768600,266.940369 
	C165.430908,265.381470 161.572495,261.827545 158.177994,258.476196 
	C154.110016,254.459900 156.195526,248.739731 157.441940,244.704315 
	C162.062378,229.744980 166.850784,214.680038 173.445404,200.525711 
	C182.768005,180.516251 193.205399,160.967590 204.191971,141.810196 
	C213.236496,126.039131 224.240387,111.401291 233.530197,95.758965 
	C245.095367,76.285355 259.566376,58.989704 273.146179,41.039608 
	C279.943695,32.054436 288.109772,24.095245 295.766876,15.773212 
	C300.399567,10.738220 305.994690,8.151525 313.002319,10.001748 
	C316.462921,10.915451 316.770325,13.558877 315.432800,15.981900 
	C310.168152,25.519297 304.960815,35.121632 299.050598,44.258987 
	C294.233917,51.705692 288.192688,58.349518 283.148987,65.662827 
	C275.923920,76.139061 268.979187,86.815918 262.154968,97.559654 
	C250.670242,115.640549 239.231979,133.754425 228.069931,152.035019 
	C223.688339,159.210938 220.089050,166.865646 216.157974,174.315231 
	C209.759277,186.441025 202.925110,198.365097 197.139893,210.777542 
	C192.626663,220.460815 189.305008,230.713043 185.717789,240.806244 
	C184.608261,243.928070 184.365219,247.357834 183.496185,251.825348 
	C188.133881,249.642868 191.830124,248.237991 195.185150,246.255600 
	C202.376251,242.006592 209.393173,237.462646 216.477554,233.033234 
	C222.357101,229.357117 228.149033,225.532333 234.126312,222.022964 
	C243.667938,216.420914 253.278320,210.930573 262.957062,205.568832 
	C273.711548,199.611130 284.381073,193.449020 295.438446,188.101456 
	C310.699524,180.720856 326.138580,173.657639 341.788696,167.149292 
	C352.961121,162.503067 364.552124,158.829773 376.058899,155.033066 
	C383.646240,152.529572 391.303406,149.964691 399.131409,148.530960 
	C409.392242,146.651657 419.824249,146.488083 429.683014,150.964218 
	C433.124969,152.526932 436.867767,153.955765 439.612671,156.408676 
	C444.469543,160.748932 443.174500,166.835449 441.846863,172.146393 
	C438.998383,183.541199 433.763367,193.765564 425.911926,202.747849 
	C419.251129,210.368011 413.532684,218.804962 407.015259,226.559433 
	C400.990112,233.728271 394.430878,240.446762 388.179169,247.428345 
	C387.285309,248.426559 386.983459,249.952637 386.095184,250.958481 
	C374.671204,263.894318 363.208649,276.796326 351.689728,289.647644 
	C350.759491,290.685516 349.343964,291.288483 348.165436,292.085754 
	C351.730591,297.530762 349.975952,302.206482 344.069153,302.918610 
	C339.839996,303.428467 336.873871,305.298767 333.960083,308.372375 
	C321.457092,321.561096 308.675568,334.485748 295.743439,347.756012 
M73.967308,275.266571 
	C73.042503,277.316528 72.065788,279.344940 71.202850,281.420624 
	C68.817444,287.158295 66.105034,292.797272 64.237328,298.701569 
	C62.645393,303.734161 62.477509,309.213501 60.923260,314.262360 
	C57.114796,326.633942 54.270908,339.208771 53.167057,352.067627 
	C52.574112,358.974884 52.090004,366.076874 54.953514,372.855835 
	C56.228104,375.873230 58.575436,377.713562 61.314522,377.560150 
	C65.199409,377.342529 69.150002,376.284271 72.835228,374.936462 
	C80.417923,372.163208 87.901161,369.093597 95.313171,365.886719 
	C100.272781,363.740875 105.039200,361.148560 110.744308,358.335846 
	C100.461754,326.242096 90.205124,294.229279 79.948502,262.216461 
	C79.496124,262.174408 79.043739,262.132355 78.591362,262.090302 
	C77.061058,266.213501 75.530746,270.336731 73.967308,275.266571 
z"/>
<path fill="transparent" opacity="1.000000" stroke="none" 
	d="
M73.983871,274.863281 
	C75.530746,270.336731 77.061058,266.213501 78.591362,262.090302 
	C79.043739,262.132355 79.496124,262.174408 79.948502,262.216461 
	C90.205124,294.229279 100.461754,326.242096 110.744308,358.335846 
	C105.039200,361.148560 100.272781,363.740875 95.313171,365.886719 
	C87.901161,369.093597 80.417923,372.163208 72.835228,374.936462 
	C69.150002,376.284271 65.199409,377.342529 61.314522,377.560150 
	C58.575436,377.713562 56.228104,375.873230 54.953514,372.855835 
	C52.090004,366.076874 52.574112,358.974884 53.167057,352.067627 
	C54.270908,339.208771 57.114796,326.633942 60.923260,314.262360 
	C62.477509,309.213501 62.645393,303.734161 64.237328,298.701569 
	C66.105034,292.797272 68.817444,287.158295 71.202850,281.420624 
	C72.065788,279.344940 73.042503,277.316528 73.983871,274.863281 
z"/>
</svg>